<svg width="198" height="138" viewBox="0 0 198 138" fill="none" xmlns="http://www.w3.org/2000/svg">
<g clip-path="url(#clip0_1_200)">
<path d="M187.147 138.001L187.373 137.605C184.349 136.052 180.587 134.12 178.621 130.949C176.684 127.824 176.64 123.579 178.508 119.873C180.097 116.718 183.016 113.891 186.95 111.699C187.726 111.266 188.54 110.857 189.328 110.46C191.232 109.502 193.201 108.511 194.824 107.106C197.06 105.17 198.752 101.921 197.491 99.0269C197.076 98.1032 196.397 97.3085 195.531 96.7329C194.664 96.1572 193.645 95.8238 192.589 95.7705L192.562 96.22C193.53 96.2687 194.464 96.5739 195.258 97.101C196.052 97.6281 196.674 98.356 197.054 99.202C198.226 101.891 196.618 104.943 194.505 106.773C192.926 108.14 190.984 109.117 189.106 110.062C188.314 110.461 187.495 110.873 186.71 111.311C182.694 113.549 179.71 116.442 178.08 119.678C176.146 123.518 176.196 127.925 178.213 131.178C180.245 134.456 184.072 136.422 187.147 138.001Z" fill="#F1F1F1"/>
<path d="M189.584 98.1432C191.875 98.1432 193.733 97.2866 193.733 96.2299C193.733 95.1733 191.875 94.3167 189.584 94.3167C187.293 94.3167 185.436 95.1733 185.436 96.2299C185.436 97.2866 187.293 98.1432 189.584 98.1432Z" fill="#F1F1F1"/>
<path d="M186.265 110.748C188.556 110.748 190.414 109.891 190.414 108.835C190.414 107.778 188.556 106.922 186.265 106.922C183.974 106.922 182.117 107.778 182.117 108.835C182.117 109.891 183.974 110.748 186.265 110.748Z" fill="#F1F1F1"/>
<path d="M193.851 112.774C196.143 112.774 198 111.917 198 110.861C198 109.804 196.143 108.947 193.851 108.947C191.56 108.947 189.703 109.804 189.703 110.861C189.703 111.917 191.56 112.774 193.851 112.774Z" fill="#F1F1F1"/>
<path d="M181.998 123.353C184.289 123.353 186.147 122.496 186.147 121.44C186.147 120.383 184.289 119.526 181.998 119.526C179.707 119.526 177.849 120.383 177.849 121.44C177.849 122.496 179.707 123.353 181.998 123.353Z" fill="#F1F1F1"/>
<path d="M173.701 123.353C175.992 123.353 177.849 122.496 177.849 121.44C177.849 120.383 175.992 119.526 173.701 119.526C171.41 119.526 169.552 120.383 169.552 121.44C169.552 122.496 171.41 123.353 173.701 123.353Z" fill="#F1F1F1"/>
<path d="M32.5454 98.9217H17.8252C17.4266 98.9213 17.0445 98.7708 16.7626 98.5032C16.4808 98.2356 16.3222 97.8727 16.3217 97.4943V51.4421C16.3222 51.0636 16.4808 50.7008 16.7626 50.4332C17.0445 50.1656 17.4266 50.0151 17.8252 50.0146H32.5454C32.944 50.0151 33.3262 50.1656 33.6081 50.4332C33.8899 50.7008 34.0485 51.0636 34.049 51.4421V97.4943C34.0485 97.8727 33.8899 98.2356 33.6081 98.5032C33.3262 98.7708 32.944 98.9213 32.5454 98.9217Z" fill="#1BE043"/>
<path d="M59.3904 98.9217H44.6699C44.2713 98.9213 43.8892 98.7708 43.6073 98.5032C43.3254 98.2356 43.1669 97.8727 43.1664 97.4943V33.1675C43.1669 32.7891 43.3254 32.4262 43.6073 32.1586C43.8892 31.891 44.2713 31.7405 44.6699 31.7401H59.3904C59.7891 31.7405 60.1712 31.891 60.4531 32.1586C60.735 32.4262 60.8935 32.7891 60.894 33.1675V97.4943C60.8935 97.8727 60.735 98.2356 60.4531 98.5032C60.1712 98.7708 59.7891 98.9213 59.3904 98.9217Z" fill="#1BE043"/>
<path d="M86.2351 98.9217H71.5146C71.116 98.9213 70.7339 98.7708 70.452 98.5032C70.1701 98.2356 70.0116 97.8727 70.0111 97.4943V51.4421C70.0116 51.0636 70.1701 50.7008 70.452 50.4332C70.7339 50.1656 71.116 50.0151 71.5146 50.0146H86.2351C86.6338 50.0151 87.0159 50.1656 87.2978 50.4332C87.5797 50.7008 87.7382 51.0636 87.7387 51.4421V97.4943C87.7382 97.8727 87.5797 98.2356 87.2978 98.5032C87.0159 98.7708 86.6338 98.9213 86.2351 98.9217Z" fill="#1BE043"/>
<path d="M113.081 98.9214H98.3595C97.9699 98.9294 97.5929 98.7904 97.311 98.535C97.0292 98.2796 96.8655 97.9285 96.8558 97.5586V25.8892C96.8655 25.5194 97.0292 25.1683 97.311 24.9128C97.5929 24.6574 97.9699 24.5184 98.3595 24.5264H113.081C113.471 24.5184 113.848 24.6574 114.13 24.9128C114.411 25.1683 114.575 25.5194 114.585 25.8892V97.5586C114.575 97.9285 114.411 98.2796 114.13 98.535C113.848 98.7904 113.471 98.9294 113.081 98.9214Z" fill="#1BE043"/>
<path d="M139.925 98.9217H125.204C124.805 98.9213 124.423 98.7708 124.141 98.5032C123.86 98.2356 123.701 97.8727 123.7 97.4943V12.9693C123.701 12.5908 123.86 12.228 124.141 11.9604C124.423 11.6928 124.805 11.5423 125.204 11.5418H139.925C140.323 11.5423 140.705 11.6928 140.987 11.9604C141.269 12.228 141.428 12.5908 141.428 12.9693V97.4943C141.428 97.8727 141.269 98.2356 140.987 98.5032C140.705 98.7708 140.323 98.9213 139.925 98.9217Z" fill="#1BE043"/>
<path d="M25.1855 44.2437C26.8639 44.2437 28.2246 42.9518 28.2246 41.3583C28.2246 39.7647 26.8639 38.4728 25.1855 38.4728C23.5071 38.4728 22.1465 39.7647 22.1465 41.3583C22.1465 42.9518 23.5071 44.2437 25.1855 44.2437Z" fill="#3F3D56"/>
<path d="M52.0302 25.4884C53.7086 25.4884 55.0692 24.1965 55.0692 22.6028C55.0692 21.0092 53.7086 19.7173 52.0302 19.7173C50.3518 19.7173 48.9912 21.0092 48.9912 22.6028C48.9912 24.1965 50.3518 25.4884 52.0302 25.4884Z" fill="#3F3D56"/>
<path d="M78.8749 44.2437C80.5533 44.2437 81.9139 42.9518 81.9139 41.3583C81.9139 39.7647 80.5533 38.4728 78.8749 38.4728C77.1965 38.4728 75.8359 39.7647 75.8359 41.3583C75.8359 42.9518 77.1965 44.2437 78.8749 44.2437Z" fill="#3F3D56"/>
<path d="M105.72 16.3509C107.398 16.3509 108.759 15.0591 108.759 13.4655C108.759 11.8719 107.398 10.58 105.72 10.58C104.042 10.58 102.682 11.8719 102.682 13.4655C102.682 15.0591 104.042 16.3509 105.72 16.3509Z" fill="#3F3D56"/>
<path d="M132.564 5.77092C134.243 5.77092 135.603 4.47906 135.603 2.88546C135.603 1.29186 134.243 0 132.564 0C130.886 0 129.525 1.29186 129.525 2.88546C129.525 4.47906 130.886 5.77092 132.564 5.77092Z" fill="#3F3D56"/>
<path d="M157.174 99.457H0.237066C0.174192 99.457 0.113893 99.4334 0.0694347 99.3912C0.0249763 99.349 0 99.2919 0 99.2323C0 99.1726 0.0249763 99.1155 0.0694347 99.0733C0.113893 99.0312 0.174192 99.0075 0.237066 99.0075H157.174C157.237 99.0075 157.298 99.0312 157.342 99.0733C157.387 99.1155 157.412 99.1726 157.412 99.2323C157.412 99.2919 157.387 99.349 157.342 99.3912C157.298 99.4334 157.237 99.457 157.174 99.457Z" fill="#CBCBCB"/>
<path d="M196.288 137.947H119.481C119.418 137.947 119.358 137.924 119.313 137.881C119.269 137.839 119.244 137.782 119.244 137.722C119.244 137.663 119.269 137.605 119.313 137.563C119.358 137.521 119.418 137.497 119.481 137.497H196.288C196.351 137.497 196.412 137.521 196.456 137.563C196.501 137.605 196.526 137.663 196.526 137.722C196.526 137.782 196.501 137.839 196.456 137.881C196.412 137.924 196.351 137.947 196.288 137.947Z" fill="#CBCBCB"/>
<path d="M146.965 95.7993C147.16 95.6154 147.31 95.3931 147.405 95.1481C147.5 94.9031 147.537 94.6414 147.513 94.3814C147.49 94.1214 147.407 93.8694 147.27 93.6432C147.133 93.417 146.945 93.2221 146.72 93.0722L147.652 89.0904L145.242 87.9625L144.009 93.6031C143.768 93.9786 143.682 94.4247 143.765 94.8569C143.848 95.2891 144.095 95.6774 144.459 95.9481C144.824 96.2188 145.28 96.3532 145.742 96.3258C146.204 96.2984 146.639 96.111 146.965 95.7993Z" fill="#FFB7B7"/>
<path d="M173.324 95.8863C173.503 95.6886 173.635 95.4559 173.709 95.2047C173.783 94.9535 173.799 94.6899 173.754 94.4324C173.71 94.1749 173.607 93.9298 173.451 93.7144C173.296 93.4989 173.093 93.3184 172.857 93.1855L173.462 89.1473L170.966 88.1998L170.196 93.9139C169.987 94.3059 169.937 94.757 170.055 95.1818C170.173 95.6066 170.452 95.9755 170.837 96.2186C171.223 96.4617 171.689 96.5622 172.147 96.5009C172.605 96.4397 173.024 96.221 173.324 95.8863L173.324 95.8863Z" fill="#FFB7B7"/>
<path d="M154.534 135.52L152.076 135.519L150.907 126.518L154.534 126.518L154.534 135.52Z" fill="#FFB7B7"/>
<path d="M155.161 137.782L147.235 137.781V137.686C147.236 136.909 147.561 136.164 148.139 135.615C148.718 135.066 149.502 134.757 150.32 134.757H150.32L155.161 134.758L155.161 137.782Z" fill="#2F2E41"/>
<path d="M162.754 135.52L160.296 135.519L159.126 126.518L162.754 126.518L162.754 135.52Z" fill="#FFB7B7"/>
<path d="M163.38 137.782L155.455 137.781V137.686C155.455 136.909 155.78 136.164 156.359 135.615C156.937 135.066 157.722 134.757 158.54 134.757H158.54L163.381 134.758L163.38 137.782Z" fill="#2F2E41"/>
<path d="M167.702 59.7897L170.353 58.8816C170.353 58.8816 171.478 59.1084 171.478 62.0049C171.478 64.9014 174.465 91.9149 174.465 91.9149L169.237 93.222L166.282 67.5929L167.702 59.7897Z" fill="#2F2E41"/>
<path d="M149.992 59.7897L147.342 58.8816C147.342 58.8816 146.217 59.1084 146.217 62.0049C146.217 64.9014 143.229 91.9149 143.229 91.9149L148.458 93.222L151.413 67.5929L149.992 59.7897Z" fill="#2F2E41"/>
<path d="M150.026 90.5989L149.302 110.891L150.905 133.338L155.038 133.428L155.639 112.49L159.047 102.02L158.703 132.878L163.383 132.825L166.281 111.595C166.281 111.595 170.108 94.0252 167.985 90.5989L158.211 87.5126L150.026 90.5989Z" fill="#2F2E41"/>
<path d="M150.106 88.1536L149.87 93.0348C149.87 93.0348 153.168 94.593 158.965 93.6438C164.761 92.6947 168.615 93.3204 168.615 93.3204L168.17 87.098L150.106 88.1536Z" fill="#E5E5E5"/>
<path d="M147.236 58.9537L154.859 55.7823L155.314 54.1213L162.729 54.3253L163.049 56.0222L170.353 58.8816L167.135 69.505L167.465 76.9782L171.478 90.5986C171.478 90.5986 168.093 93.3277 159.962 92.1535L158.559 89.4692L157.7 92.3079C157.7 92.3079 150.57 94.7983 148.594 91.5563L150.026 68.1373L147.236 58.9537Z" fill="#2F2E41"/>
<path d="M158.954 52.5612C161.673 52.5612 163.878 50.4679 163.878 47.8858C163.878 45.3037 161.673 43.2104 158.954 43.2104C156.234 43.2104 154.03 45.3037 154.03 47.8858C154.03 50.4679 156.234 52.5612 158.954 52.5612Z" fill="#FFB7B7"/>
<path d="M164.804 46.074C164.716 45.6935 164.546 45.3343 164.306 45.0184C164.21 44.145 163.904 43.3043 163.41 42.562C163.216 42.2141 162.941 41.913 162.606 41.6815C162.223 41.4717 161.785 41.3681 161.342 41.3823C161.262 41.3811 161.118 41.4042 160.988 41.4098C160.905 41.3854 160.821 41.3635 160.737 41.343C160.687 41.2393 160.59 40.9371 160.563 40.9575L160.196 41.2342C160.041 41.2087 159.885 41.1887 159.729 41.1729C159.672 41.0187 159.615 40.8644 159.558 40.7101C159.466 40.8481 159.385 40.9927 159.316 41.1425C159.16 41.1353 159.004 41.1328 158.848 41.1349L158.536 40.8506C158.518 40.9299 158.476 41.0024 158.415 41.0592C158.354 41.116 158.276 41.1547 158.193 41.1704C158.049 41.1844 157.906 41.2027 157.764 41.2244C157.752 41.2243 157.74 41.2244 157.729 41.2241C156.961 41.206 156.135 41.1733 155.493 41.5735C155.193 41.7693 154.949 42.0328 154.782 42.3404C154.703 42.3912 154.624 42.4415 154.548 42.4953C154.29 42.6621 154.067 42.8721 153.889 43.1152C153.76 43.3248 153.662 43.5504 153.598 43.7856C153.353 44.4934 153.24 45.2362 153.263 45.981C153.289 46.7308 153.587 47.449 154.106 48.0144C154.435 48.3503 154.854 48.5984 155.184 48.9339C155.863 49.6247 155.99 50.5881 156.57 51.3191C157.185 52.0922 158.305 52.6009 159.29 52.7467C159.882 52.8314 160.485 52.8042 161.066 52.6667C161.647 52.5292 162.193 52.2841 162.674 51.9454C162.905 51.7928 163.1 51.5978 163.25 51.3718C163.592 50.8106 163.447 50.1053 163.574 49.4684C163.811 48.2747 165.011 47.2729 164.804 46.074Z" fill="#2F2E41"/>
<path d="M25.0234 41.5389L24.7404 41.1779L52.0305 21.8872L78.7883 40.8373L105.912 12.8761L105.961 12.8572L132.285 2.54167L132.466 2.95786L106.19 13.2542L78.8474 41.4408L52.0302 22.4486L25.0234 41.5389Z" fill="#3F3D56"/>
</g>
<defs>
<clipPath id="clip0_1_200">
<rect width="198" height="138" fill="white"/>
</clipPath>
</defs>
</svg>
