<svg width="37" height="35" viewBox="0 0 37 35" fill="none" xmlns="http://www.w3.org/2000/svg">
<g clip-path="url(#clip0_1_29)">
<path d="M30.8333 0H6.16667C4.53116 0 2.96265 0.614582 1.80617 1.70854C0.649701 2.80251 0 4.28624 0 5.83333L0 23.3333C0 24.8804 0.649701 26.3642 1.80617 27.4581C2.96265 28.5521 4.53116 29.1667 6.16667 29.1667H10.6375L17.4995 34.6544C17.7778 34.8772 18.1307 34.9995 18.4954 34.9995C18.8601 34.9995 19.2129 34.8772 19.4913 34.6544L26.3625 29.1667H30.8333C32.4688 29.1667 34.0373 28.5521 35.1938 27.4581C36.3503 26.3642 37 24.8804 37 23.3333V5.83333C37 4.28624 36.3503 2.80251 35.1938 1.70854C34.0373 0.614582 32.4688 0 30.8333 0V0ZM10.7917 7.29167H18.5C18.9089 7.29167 19.301 7.44531 19.5901 7.7188C19.8792 7.99229 20.0417 8.36323 20.0417 8.75C20.0417 9.13677 19.8792 9.50771 19.5901 9.7812C19.301 10.0547 18.9089 10.2083 18.5 10.2083H10.7917C10.3828 10.2083 9.99066 10.0547 9.70154 9.7812C9.41243 9.50771 9.25 9.13677 9.25 8.75C9.25 8.36323 9.41243 7.99229 9.70154 7.7188C9.99066 7.44531 10.3828 7.29167 10.7917 7.29167ZM26.2083 21.875H10.7917C10.3828 21.875 9.99066 21.7214 9.70154 21.4479C9.41243 21.1744 9.25 20.8034 9.25 20.4167C9.25 20.0299 9.41243 19.659 9.70154 19.3855C9.99066 19.112 10.3828 18.9583 10.7917 18.9583H26.2083C26.6172 18.9583 27.0093 19.112 27.2985 19.3855C27.5876 19.659 27.75 20.0299 27.75 20.4167C27.75 20.8034 27.5876 21.1744 27.2985 21.4479C27.0093 21.7214 26.6172 21.875 26.2083 21.875ZM26.2083 16.0417H10.7917C10.3828 16.0417 9.99066 15.888 9.70154 15.6145C9.41243 15.341 9.25 14.9701 9.25 14.5833C9.25 14.1966 9.41243 13.8256 9.70154 13.5521C9.99066 13.2786 10.3828 13.125 10.7917 13.125H26.2083C26.6172 13.125 27.0093 13.2786 27.2985 13.5521C27.5876 13.8256 27.75 14.1966 27.75 14.5833C27.75 14.9701 27.5876 15.341 27.2985 15.6145C27.0093 15.888 26.6172 16.0417 26.2083 16.0417Z" fill="black"/>
</g>
<defs>
<clipPath id="clip0_1_29">
<rect width="37" height="35" fill="white"/>
</clipPath>
</defs>
</svg>
