<svg width="198" height="135" viewBox="0 0 198 135" fill="none" xmlns="http://www.w3.org/2000/svg">
<g clip-path="url(#clip0_1_157)">
<path d="M114.854 134.608C114.825 134.565 114.137 133.546 113.899 131.43C113.681 129.488 113.821 126.215 115.732 121.65C119.351 113.001 114.898 106.022 114.852 105.953L115.072 105.839C115.929 107.297 116.549 108.856 116.912 110.469C117.809 114.226 117.482 118.131 115.97 121.728C112.357 130.363 115.043 134.45 115.07 134.49L114.854 134.608Z" fill="#F2F2F2"/>
<path d="M113.438 105.445C114.35 105.445 115.089 104.788 115.089 103.978C115.089 103.168 114.35 102.512 113.438 102.512C112.527 102.512 111.788 103.168 111.788 103.978C111.788 104.788 112.527 105.445 113.438 105.445Z" fill="#F2F2F2"/>
<path d="M118.644 110.86C119.556 110.86 120.295 110.203 120.295 109.393C120.295 108.583 119.556 107.927 118.644 107.927C117.733 107.927 116.994 108.583 116.994 109.393C116.994 110.203 117.733 110.86 118.644 110.86Z" fill="#F2F2F2"/>
<path d="M115.089 114.469C116.001 114.469 116.74 113.813 116.74 113.003C116.74 112.193 116.001 111.536 115.089 111.536C114.177 111.536 113.438 112.193 113.438 113.003C113.438 113.813 114.177 114.469 115.089 114.469Z" fill="#F2F2F2"/>
<path d="M119.406 117.515C120.318 117.515 121.057 116.859 121.057 116.049C121.057 115.239 120.318 114.582 119.406 114.582C118.494 114.582 117.755 115.239 117.755 116.049C117.755 116.859 118.494 117.515 119.406 117.515Z" fill="#F2F2F2"/>
<path d="M113.819 122.253C114.731 122.253 115.47 121.597 115.47 120.787C115.47 119.977 114.731 119.32 113.819 119.32C112.907 119.32 112.168 119.977 112.168 120.787C112.168 121.597 112.907 122.253 113.819 122.253Z" fill="#F2F2F2"/>
<path d="M115.851 134.661C115.851 134.661 114.2 131.051 119.152 128.344L115.851 134.661Z" fill="#F2F2F2"/>
<path d="M113.821 134.596C113.821 134.596 113.07 130.758 107.255 130.79L113.821 134.596Z" fill="#F2F2F2"/>
<path d="M28.2716 27.9208C26.9518 27.9208 25.6615 27.5731 24.5641 26.9216C23.4666 26.2702 22.6113 25.3442 22.1062 24.2609C21.6011 23.1775 21.4689 21.9855 21.7264 20.8354C21.9839 19.6853 22.6195 18.6289 23.5528 17.7998C24.4861 16.9706 25.6752 16.406 26.9697 16.1772C28.2642 15.9485 29.6061 16.0659 30.8255 16.5146C32.0449 16.9633 33.0871 17.7232 33.8204 18.6982C34.5537 19.6732 34.9451 20.8194 34.9451 21.992C34.9451 23.5644 34.242 25.0724 32.9905 26.1843C31.739 27.2962 30.0416 27.9208 28.2716 27.9208ZM28.2716 16.2679C26.9973 16.2679 25.7515 16.6036 24.6919 17.2326C23.6323 17.8616 22.8064 18.7557 22.3187 19.8017C21.8311 20.8476 21.7035 21.9986 21.9521 23.109C22.2007 24.2195 22.8144 25.2394 23.7155 26.04C24.6166 26.8406 25.7647 27.3858 27.0146 27.6067C28.2645 27.8275 29.56 27.7142 30.7374 27.2809C31.9148 26.8476 32.9211 26.1139 33.6291 25.1726C34.3371 24.2312 34.715 23.1244 34.715 21.9923C34.715 21.2405 34.5484 20.4962 34.2246 19.8017C33.9008 19.1071 33.4261 18.4761 32.8278 17.9445C32.2295 17.413 31.5192 16.9913 30.7374 16.7036C29.9557 16.416 29.1178 16.2679 28.2716 16.2679Z" fill="#3F3D56"/>
<path d="M95.9201 27.9208C94.6002 27.9208 93.31 27.5731 92.2126 26.9216C91.1151 26.2702 90.2598 25.3442 89.7547 24.2609C89.2496 23.1775 89.1174 21.9855 89.3749 20.8354C89.6324 19.6853 90.268 18.6289 91.2013 17.7998C92.1346 16.9706 93.3237 16.406 94.6182 16.1772C95.9127 15.9485 97.2545 16.0659 98.4739 16.5146C99.6933 16.9633 100.736 17.7232 101.469 18.6982C102.202 19.6732 102.594 20.8194 102.594 21.992C102.594 23.5644 101.89 25.0724 100.639 26.1843C99.3874 27.2962 97.69 27.9208 95.9201 27.9208ZM95.9201 16.2679C94.6457 16.2679 93.4 16.6036 92.3404 17.2326C91.2808 17.8616 90.4549 18.7557 89.9672 19.8017C89.4795 20.8476 89.3519 21.9986 89.6005 23.109C89.8492 24.2195 90.4628 25.2394 91.3639 26.04C92.2651 26.8406 93.4132 27.3858 94.6631 27.6067C95.913 27.8275 97.2085 27.7142 98.3859 27.2809C99.5633 26.8476 100.57 26.1139 101.278 25.1726C101.986 24.2312 102.363 23.1244 102.363 21.9923C102.364 21.2405 102.197 20.4962 101.873 19.8017C101.549 19.1071 101.075 18.4761 100.476 17.9445C99.878 17.413 99.1676 16.9913 98.3859 16.7036C97.6041 16.416 96.7663 16.2679 95.9201 16.2679Z" fill="#3F3D56"/>
<path d="M120.354 14.1605H4.10022C1.83709 14.164 0.0030984 16.1769 0 18.6611V67.9007C0.0030984 70.3848 1.83709 72.3967 4.10022 72.4013H120.354C122.617 72.3979 124.451 70.385 124.454 67.9007V18.6609C124.451 16.1769 122.617 14.1649 120.354 14.1603V14.1605ZM123.972 67.9007C123.969 70.0927 122.351 71.8691 120.354 71.8716H4.10022C2.10304 71.8689 0.485415 70.0927 0.482317 67.9007V18.6609C0.484641 16.4689 2.10304 14.6925 4.10022 14.69H120.354C122.351 14.6927 123.968 16.4689 123.971 18.6609L123.972 67.9007Z" fill="#3F3D56"/>
<path d="M29.1766 33.9649H8.5206V46.8106H29.1766V33.9649Z" fill="#F2F2F2"/>
<path d="M58.0951 33.9649H37.439V46.8106H58.0951V33.9649Z" fill="#F2F2F2"/>
<path d="M87.0135 33.9649H66.3575V46.8106H87.0135V33.9649Z" fill="#F2F2F2"/>
<path d="M115.932 33.9649H95.2759V46.8106H115.932V33.9649Z" fill="#F2F2F2"/>
<path d="M29.1766 52.7747H8.5206V65.6204H29.1766V52.7747Z" fill="#F2F2F2"/>
<path d="M58.0951 52.7747H37.439V65.6204H58.0951V52.7747Z" fill="#F2F2F2"/>
<path d="M87.0135 52.7747H66.3575V65.6204H87.0135V52.7747Z" fill="#F2F2F2"/>
<path d="M115.932 52.7747H95.2759V65.6204H115.932V52.7747Z" fill="#F2F2F2"/>
<path d="M44.3198 65.5456L39.4437 59.5629L40.7719 58.7087L44.5044 63.288L58.7873 50.2514L59.9621 51.2676L44.3198 65.5456Z" fill="#FFB800"/>
<path d="M73.4964 46.7359L68.6203 40.7532L69.9485 39.899L73.6811 44.4782L87.9639 31.4417L89.1387 32.4579L73.4964 46.7359Z" fill="#FFB800"/>
<path d="M28.3597 0H28.0067V22.0189H28.3597V0Z" fill="#2F2E41"/>
<path d="M96.2663 0H95.9134V22.0189H96.2663V0Z" fill="#2F2E41"/>
<path d="M197.622 134.999H99.6989C99.6504 135.002 99.6018 134.996 99.556 134.982C99.5102 134.967 99.4683 134.944 99.4328 134.915C99.3974 134.885 99.3691 134.85 99.3497 134.81C99.3304 134.771 99.3204 134.728 99.3204 134.685C99.3204 134.641 99.3304 134.599 99.3497 134.559C99.3691 134.52 99.3974 134.484 99.4328 134.454C99.4683 134.425 99.5102 134.402 99.556 134.388C99.6018 134.373 99.6504 134.367 99.6989 134.37H197.622C197.67 134.367 197.719 134.373 197.764 134.388C197.81 134.402 197.852 134.425 197.888 134.454C197.923 134.484 197.951 134.52 197.971 134.559C197.99 134.599 198 134.641 198 134.685C198 134.728 197.99 134.771 197.971 134.81C197.951 134.85 197.923 134.885 197.888 134.915C197.852 134.944 197.81 134.967 197.764 134.982C197.719 134.996 197.67 135.002 197.622 134.999Z" fill="#3F3D56"/>
<path d="M15.6596 46.7359L10.7835 40.7532L12.1117 39.899L15.8442 44.4782L30.1271 31.4417L31.3019 32.4579L15.6596 46.7359Z" fill="#FFB800"/>
<path d="M169.444 85.5124C169.581 85.4762 169.721 85.4496 169.862 85.4328L175.517 75.2251L173.79 72.9259L177.355 70.1579L181.837 75.0301L172.709 86.8317C172.934 87.2781 173.001 87.7749 172.901 88.2558C172.8 88.7368 172.537 89.1791 172.147 89.524C171.756 89.8689 171.257 90.1001 170.715 90.1866C170.173 90.2732 169.614 90.2111 169.113 90.0086C168.612 89.8062 168.192 89.4729 167.909 89.0532C167.626 88.6334 167.494 88.1472 167.53 87.659C167.566 87.1709 167.768 86.704 168.11 86.3206C168.452 85.9371 168.917 85.6552 169.444 85.5124Z" fill="#FFB8B8"/>
<path d="M179.096 71.5698C179.019 71.6419 178.931 71.7037 178.834 71.7533L173.048 74.7328C172.782 74.8701 172.465 74.9077 172.167 74.8373C171.869 74.7669 171.615 74.5943 171.461 74.3574C171.444 74.3326 171.429 74.3073 171.416 74.2814L168.601 69.0002C168.481 68.778 168.456 68.5249 168.529 68.2872C168.601 68.0495 168.768 67.843 168.998 67.7053L172.584 65.5381C172.808 65.4028 173.078 65.3412 173.348 65.364C173.617 65.3868 173.869 65.4925 174.061 65.6629L179.073 70.1316C179.287 70.3216 179.408 70.5781 179.412 70.8466C179.417 71.1151 179.303 71.3744 179.095 71.5696L179.096 71.5698Z" fill="#CCCCCC"/>
<path d="M187.219 130.057L184.164 130.795L179.505 120.679L184.013 119.59L187.219 130.057Z" fill="#FFB8B8"/>
<path d="M181.746 130.546L187.637 129.122L188.645 132.416L179.046 134.737C178.778 133.863 178.912 132.93 179.419 132.144C179.925 131.358 180.762 130.783 181.746 130.545H181.746L181.746 130.546Z" fill="#2F2E41"/>
<path d="M161.107 132.128H157.941L156.435 121.28H161.107V132.128Z" fill="#FFB8B8"/>
<path d="M155.68 131.324H161.785V134.739H151.836C151.836 134.291 151.936 133.846 152.129 133.432C152.322 133.018 152.605 132.641 152.962 132.324C153.319 132.007 153.743 131.756 154.209 131.584C154.675 131.412 155.175 131.324 155.68 131.324H155.68Z" fill="#2F2E41"/>
<path d="M164.442 61.9374C167.944 61.9374 170.784 59.415 170.784 56.3034C170.784 53.1918 167.944 50.6694 164.442 50.6694C160.94 50.6694 158.1 53.1918 158.1 56.3034C158.1 59.415 160.94 61.9374 164.442 61.9374Z" fill="#FFB8B8"/>
<path d="M160.913 124.394H156.587C156.291 124.393 156.007 124.293 155.791 124.113C155.575 123.933 155.444 123.687 155.425 123.425C154.137 105.22 154.89 92.1619 157.798 82.3295C157.811 82.2864 157.827 82.2441 157.845 82.2028L158.078 81.6883C158.163 81.4963 158.312 81.3317 158.505 81.216C158.697 81.1002 158.924 81.0387 159.157 81.0394H168.052C168.22 81.0392 168.386 81.0714 168.538 81.1336C168.69 81.1958 168.825 81.2866 168.935 81.3997L170.143 82.6522C170.166 82.6765 170.188 82.7015 170.209 82.7277C175.658 89.4776 180.54 102.674 186.195 120.411C186.279 120.669 186.246 120.945 186.103 121.182C185.96 121.418 185.719 121.596 185.431 121.677L180.784 122.998C180.517 123.073 180.229 123.06 179.972 122.962C179.715 122.864 179.506 122.687 179.383 122.463L167.319 100.234C167.235 100.079 167.096 99.9516 166.924 99.8716C166.752 99.7916 166.556 99.763 166.364 99.7899C166.172 99.8168 165.996 99.8979 165.86 100.021C165.724 100.144 165.636 100.303 165.61 100.474L162.064 123.501C162.025 123.748 161.888 123.974 161.676 124.138C161.465 124.302 161.194 124.393 160.913 124.394Z" fill="#2F2E41"/>
<path d="M169.655 82.7439H169.619L158.813 82.4402C158.535 82.4333 158.269 82.3379 158.064 82.1714C157.859 82.0049 157.728 81.7784 157.695 81.5332C156.327 71.6831 160.082 69.0442 161.761 68.3664C161.901 68.3101 162.022 68.2227 162.113 68.1124C162.204 68.0022 162.262 67.8729 162.28 67.7372L162.426 66.7049C162.45 66.5226 162.53 66.3494 162.655 66.2035C165.287 63.1744 168.881 62.2044 170.788 61.8961C171.091 61.8477 171.403 61.9082 171.656 62.0643C171.908 62.2204 172.081 62.4592 172.135 62.7282C172.139 62.7451 172.142 62.7621 172.144 62.7792L172.362 64.2617C172.384 64.4031 172.447 64.5369 172.546 64.6496C178.035 71.0248 171.92 80.4377 170.638 82.2599C170.534 82.4078 170.389 82.5297 170.217 82.6143C170.045 82.699 169.852 82.7436 169.655 82.7439Z" fill="#CCCCCC"/>
<path d="M166.255 95.0556L158.091 96.4534L157.781 95.0229L164.03 93.9529L156.767 76.9432L158.3 76.4267L166.255 95.0556Z" fill="#FFB800"/>
<path d="M177.237 56.9376C175.822 55.1679 174.126 53.5901 172.2 52.2535C170.6 51.1431 168.818 50.1941 166.853 49.7404C164.889 49.2866 162.717 49.3637 160.924 50.2104C159.131 51.057 157.277 52.7394 157.266 54.5433C157.262 55.1229 157.428 55.907 158.071 55.8067L158.257 55.8297L162.906 54.9954L164.886 61.1008C165.025 61.5297 165.212 62.0094 165.67 62.1922C166.102 62.3645 166.6 62.2021 167.039 62.0401C167.111 62.0135 167.728 60.7826 167.728 60.7826C167.743 60.7442 167.77 60.71 167.805 60.6838C167.84 60.6576 167.883 60.6402 167.928 60.6335C167.974 60.6268 168.02 60.6309 168.063 60.6455C168.106 60.6601 168.144 60.6846 168.173 60.7166L168.539 61.1237C168.609 61.2017 168.706 61.2572 168.814 61.2821C168.923 61.3069 169.038 61.2996 169.141 61.2614L176.724 58.4493C177.073 58.3197 177.463 58.1511 177.565 57.8265C177.66 57.5143 177.446 57.2005 177.237 56.9376Z" fill="#2F2E41"/>
<path d="M168.647 96.7446C168.979 96.5377 169.256 96.2687 169.459 95.9565C169.661 95.6442 169.784 95.2964 169.818 94.9375C169.853 94.5786 169.798 94.2173 169.659 93.8791C169.519 93.5408 169.298 93.2339 169.01 92.9799L171.017 71.4471L165.042 72.1774L164.928 93.0975C164.479 93.5547 164.234 94.1425 164.241 94.7493C164.247 95.3561 164.504 95.9398 164.962 96.3896C165.421 96.8394 166.049 97.124 166.728 97.1895C167.407 97.255 168.09 97.0967 168.646 96.7448L168.647 96.7446Z" fill="#FFB8B8"/>
<path d="M171.408 74.5478C171.296 74.5478 171.185 74.5335 171.078 74.5053L164.662 72.8289C164.516 72.7907 164.379 72.7272 164.261 72.6421C164.142 72.557 164.043 72.4519 163.97 72.3329C163.897 72.2139 163.851 72.0833 163.835 71.9485C163.819 71.8137 163.832 71.6774 163.875 71.5474C163.885 71.5199 163.895 71.4929 163.907 71.4661L166.281 66.0173C166.38 65.7871 166.569 65.5962 166.813 65.4794C167.057 65.3627 167.34 65.3279 167.611 65.3814L171.85 66.1999C172.114 66.251 172.35 66.3826 172.517 66.5719C172.684 66.7613 172.772 66.9965 172.764 67.2369L172.567 73.5433C172.559 73.8117 172.433 74.0667 172.217 74.2542C172 74.4417 171.71 74.5469 171.408 74.5475V74.5478Z" fill="#CCCCCC"/>
</g>
<defs>
<clipPath id="clip0_1_157">
<rect width="198" height="135" fill="white"/>
</clipPath>
</defs>
</svg>
