<svg width="29" height="35" viewBox="0 0 29 35" fill="none" xmlns="http://www.w3.org/2000/svg">
<path d="M10.498 29.1667C8.81302 29.1655 7.19752 28.6938 6.00605 27.8549C4.81459 27.0161 4.1445 25.8788 4.14286 24.6925C4.14286 24.3057 3.92462 23.9348 3.53615 23.6613C3.14768 23.3878 2.62081 23.2342 2.07143 23.2342C1.52205 23.2342 0.995176 23.3878 0.606708 23.6613C0.21824 23.9348 0 24.3057 0 24.6925V24.7917C0 24.8194 0 24.8442 0 24.8719C0.0691305 26.8002 1.20529 28.6332 3.16631 29.9803C5.12734 31.3274 7.75814 32.082 10.498 32.0833H12.4286V33.5417C12.4286 33.9284 12.6468 34.2994 13.0353 34.5729C13.4237 34.8464 13.9506 35 14.5 35C15.0494 35 15.5763 34.8464 15.9647 34.5729C16.3532 34.2994 16.5714 33.9284 16.5714 33.5417V32.0833H18.502C20.9933 32.0815 23.4024 31.4559 25.2988 30.3185C27.1952 29.1811 28.4552 27.6059 28.8536 25.8746C29.2521 24.1433 28.763 22.3686 27.4738 20.8678C26.1846 19.367 24.1793 18.2379 21.8163 17.6823L16.5714 16.45V5.83333H18.502C20.187 5.83449 21.8025 6.30625 22.9939 7.14507C24.1854 7.98388 24.8555 9.12123 24.8571 10.3075C24.8571 10.6943 25.0754 11.0652 25.4638 11.3387C25.8523 11.6122 26.3792 11.7658 26.9286 11.7658C27.4779 11.7658 28.0048 11.6122 28.3933 11.3387C28.7818 11.0652 29 10.6943 29 10.3075V10.2083C29 10.1806 29 10.1558 29 10.1281C28.9309 8.19981 27.7947 6.36676 25.8337 5.01966C23.8727 3.67256 21.2419 2.91795 18.502 2.91667H16.5714V1.45833C16.5714 1.07156 16.3532 0.700627 15.9647 0.427136C15.5763 0.153645 15.0494 0 14.5 0C13.9506 0 13.4237 0.153645 13.0353 0.427136C12.6468 0.700627 12.4286 1.07156 12.4286 1.45833V2.91667H10.498C8.00673 2.91854 5.5976 3.54409 3.70122 4.68151C1.80483 5.81893 0.544805 7.39408 0.146353 9.12541C-0.2521 10.8567 0.236994 12.6314 1.52621 14.1322C2.81543 15.633 4.82074 16.7621 7.18371 17.3177L12.4286 18.55V29.1667H10.498ZM16.5714 19.5227L20.5071 20.4473C21.939 20.7828 23.1546 21.4661 23.9363 22.3749C24.718 23.2838 25.0148 24.3588 24.7737 25.4076C24.5325 26.4564 23.769 27.4105 22.6199 28.0993C21.4708 28.788 20.0111 29.1664 18.502 29.1667H16.5714V19.5227ZM8.49286 14.5527C7.06096 14.2172 5.84539 13.5339 5.06368 12.6251C4.28197 11.7162 3.98515 10.6412 4.22634 9.59244C4.46753 8.54364 5.23098 7.58949 6.38006 6.90075C7.52915 6.21201 8.98887 5.83363 10.498 5.83333H12.4286V15.4773L8.49286 14.5527Z" fill="#28C76F"/>
</svg>
