<svg width="55" height="55" viewBox="0 0 55 55" fill="none" xmlns="http://www.w3.org/2000/svg">
<path d="M0.5 15C0.5 6.99187 6.99187 0.5 15 0.5H54.5V54.5H15C6.99187 54.5 0.5 48.0081 0.5 40V15Z" fill="white" stroke="black"/>
<g clip-path="url(#clip0_2_3)">
<rect width="38" height="32" transform="translate(9 11)" fill="white"/>
<path d="M40.9796 23.275L40.8312 23.0312C40.5877 23.05 40.3502 23.05 40.1068 23.0312L39.9584 23.2812C39.614 23.8562 38.943 24.1187 38.3255 23.9125C37.5062 23.6437 36.9599 23.3625 36.289 22.7812C35.7546 22.3187 35.624 21.5125 35.9684 20.8812L36.1168 20.6125C35.9802 20.4 35.8615 20.1812 35.7546 19.95H35.2143C34.5255 19.95 33.9437 19.4375 33.813 18.725C33.6587 17.8687 33.6527 17.2125 33.819 16.3187C33.9437 15.6125 34.5374 15.1 35.2202 15.1H35.7546C35.8615 14.8687 35.9802 14.65 36.1168 14.4375L35.9624 14.1562C35.618 13.5312 35.7487 12.7375 36.2712 12.2625C36.9005 11.6937 37.4409 11.3687 38.2602 11.075C38.9015 10.8437 39.608 11.1187 39.9524 11.7375L40.1068 12.0125C40.3502 11.9937 40.5877 11.9937 40.8312 12.0125L40.9855 11.7375C41.3299 11.1187 42.0365 10.8437 42.6837 11.0812C43.4734 11.3625 44.0077 11.6812 44.6727 12.275C45.1952 12.7437 45.3199 13.5375 44.9755 14.1625L44.8212 14.4375C44.9577 14.65 45.0765 14.8687 45.1834 15.1H45.4862C46.1749 15.1 46.7568 15.6125 46.8874 16.325C47.0418 17.1812 47.0477 17.8375 46.8815 18.7312C46.7568 19.4375 46.163 19.95 45.4802 19.95H45.1834C45.0765 20.1812 44.9577 20.4 44.8212 20.6125L44.9696 20.8812C45.3199 21.5187 45.1774 22.325 44.643 22.7875C44.0077 23.3375 43.4615 23.625 42.6243 23.9062C42.0009 24.1125 41.324 23.8562 40.9796 23.275ZM41.704 21.1187L42.3334 22.2625C42.7312 22.0875 43.0993 21.8625 43.4437 21.5875L42.8143 20.4437L43.1943 19.975C43.4793 19.6187 43.7049 19.2187 43.8474 18.7812L44.0434 18.2H45.2962C45.3496 17.7562 45.3496 17.3 45.2962 16.8562H44.0434L43.8474 16.275C43.699 15.8375 43.4793 15.4375 43.1943 15.0812L42.8143 14.6125L43.4377 13.4625C43.0993 13.1875 42.7252 12.9625 42.3274 12.7875L41.698 13.9312L41.1221 13.8187C40.6887 13.7312 40.2434 13.7312 39.8099 13.8187L39.234 13.9312L38.6046 12.7875C38.2127 12.9562 37.8387 13.1875 37.5002 13.4625L38.1296 14.6062L37.7496 15.075C37.4646 15.4312 37.239 15.8312 37.0965 16.2687L36.9005 16.85H35.6477C35.5943 17.2937 35.5943 17.75 35.6477 18.1937H36.9005L37.0965 18.775C37.2449 19.2125 37.4646 19.6125 37.7496 19.9687L38.1296 20.4375L37.5002 21.5875C37.8387 21.8625 38.2127 22.0875 38.6105 22.2625L39.2399 21.1187L39.8159 21.2312C40.2493 21.3187 40.6946 21.3187 41.128 21.2312L41.704 21.1187ZM17.6274 39.4V37.425C16.8615 37.0812 16.1371 36.6375 15.4662 36.1062L13.8334 37.1C13.2515 37.45 12.5212 37.3312 12.0699 36.8125C10.6331 35.1687 9.78401 33.7187 9.06557 31.3062C8.8637 30.6375 9.13089 29.9125 9.70682 29.5562L11.3278 28.5625C11.2268 27.6875 11.2268 26.8062 11.3278 25.9312L9.70682 24.9437C9.13089 24.5937 8.8637 23.8625 9.06557 23.1937C9.78401 20.7937 10.6212 19.3437 12.0699 17.6875C12.5212 17.1687 13.2574 17.05 13.8334 17.4L15.4603 18.3937C16.1312 17.8625 16.8556 17.425 17.6215 17.075V15.1C17.6215 14.3937 18.0846 13.7875 18.7378 13.6375C20.7981 13.15 22.419 13.0937 24.7762 13.6375C25.4293 13.7875 25.8984 14.4 25.8984 15.1V17.075C26.6643 17.4187 27.3887 17.8625 28.0596 18.3875L29.6865 17.4C30.2684 17.05 31.0046 17.1687 31.4559 17.6875C33.053 19.5375 33.9199 21.1812 34.5493 23.2187C34.7512 23.875 34.5018 24.5875 33.9437 24.95L32.4593 25.9375C32.5602 26.8125 32.5602 27.6937 32.4593 28.5687L34.1277 29.6625C34.6384 30 34.8996 30.6375 34.769 31.2562C34.3593 33.2125 32.8096 35.2937 31.4499 36.8312C30.9987 37.3437 30.2684 37.4562 29.6924 37.1062L28.0596 36.1125C27.3887 36.6437 26.6643 37.0812 25.8984 37.4312V39.4062C25.8984 40.1062 25.4352 40.7187 24.7821 40.8687C22.5556 41.3875 20.9287 41.3812 18.7318 40.8687C18.0906 40.7125 17.6274 40.1 17.6274 39.4ZM19.5274 39.0125C20.9999 39.325 22.5259 39.325 23.9984 39.0125V36.0312L24.6337 35.7937C25.6312 35.425 26.5515 34.8625 27.359 34.1375L27.8696 33.675L30.3277 35.1687C31.3252 33.975 32.3465 32.5875 32.8274 31.0937L30.3693 29.6L30.494 28.9062C30.684 27.8062 30.684 26.6875 30.494 25.5875L30.3693 24.8937L32.8274 23.4C32.3465 21.9062 31.3252 20.5125 30.3277 19.325L27.8696 20.8187L27.359 20.3562C26.5515 19.625 25.6371 19.0687 24.6337 18.7L23.9984 18.4625V15.4875C22.5259 15.175 20.9999 15.175 19.5274 15.4875V18.4687L18.8921 18.7062C17.8946 19.075 16.9743 19.6375 16.1668 20.3625L15.6562 20.825L13.1981 19.3312C12.2039 20.5209 11.4432 21.9058 10.9596 23.4062L13.4178 24.9L13.2931 25.5937C13.1031 26.6937 13.1031 27.8125 13.2931 28.9125L13.4178 29.6062L10.9596 31.1C11.4406 32.5937 12.2006 33.9875 13.1981 35.175L15.6562 33.6812L16.1668 34.1437C16.9743 34.875 17.8887 35.4312 18.8921 35.8L19.5274 36.0375V39.0125ZM21.8074 32.4312C19.094 32.4312 16.8853 30.1062 16.8853 27.25C16.8853 24.3937 19.094 22.0687 21.8074 22.0687C24.5209 22.0687 26.7296 24.3937 26.7296 27.25C26.7296 30.1062 24.5209 32.4312 21.8074 32.4312ZM21.8074 24.0687C20.1449 24.0687 18.7853 25.4937 18.7853 27.25C18.7853 29.0062 20.139 30.4312 21.8074 30.4312C23.4699 30.4312 24.8296 29.0062 24.8296 27.25C24.8296 25.4937 23.4759 24.0687 21.8074 24.0687ZM40.9796 42.3L40.8312 42.0562C40.5877 42.075 40.3502 42.075 40.1068 42.0562L39.9584 42.3062C39.614 42.8812 38.943 43.1437 38.3255 42.9375C37.5062 42.6687 36.9599 42.3875 36.289 41.8062C35.7546 41.3437 35.624 40.5375 35.9684 39.9062L36.1168 39.6375C35.9802 39.425 35.8615 39.2062 35.7546 38.975H35.2143C34.5255 38.975 33.9437 38.4625 33.813 37.75C33.6587 36.8937 33.6527 36.2375 33.819 35.3437C33.9437 34.6375 34.5374 34.125 35.2202 34.125H35.7546C35.8615 33.8937 35.9802 33.675 36.1168 33.4625L35.9624 33.1812C35.618 32.5562 35.7487 31.7625 36.2712 31.2875C36.9005 30.7187 37.4409 30.3937 38.2602 30.1C38.9015 29.8687 39.608 30.1437 39.9524 30.7625L40.1068 31.0375C40.3502 31.0187 40.5877 31.0187 40.8312 31.0375L40.9855 30.7625C41.3299 30.1437 42.0365 29.8687 42.6837 30.1062C43.4734 30.3875 44.0077 30.7062 44.6727 31.3C45.1952 31.7687 45.3199 32.5625 44.9755 33.1875L44.8212 33.4625C44.9577 33.675 45.0765 33.8937 45.1834 34.125H45.4862C46.1749 34.125 46.7568 34.6375 46.8874 35.35C47.0418 36.2062 47.0477 36.8625 46.8815 37.7562C46.7568 38.4625 46.163 38.975 45.4802 38.975H45.1834C45.0765 39.2062 44.9577 39.425 44.8212 39.6375L44.9696 39.9062C45.3199 40.5437 45.1774 41.35 44.643 41.8125C44.0077 42.3625 43.4615 42.65 42.6243 42.9312C42.0009 43.1312 41.324 42.875 40.9796 42.3ZM41.704 40.1375L42.3334 41.2812C42.7312 41.1062 43.0993 40.8812 43.4437 40.6062L42.8143 39.4625L43.1943 38.9937C43.4793 38.6375 43.7049 38.2375 43.8474 37.8L44.0434 37.2187H45.2962C45.3496 36.775 45.3496 36.3187 45.2962 35.875H44.0434L43.8474 35.2937C43.699 34.8562 43.4793 34.4562 43.1943 34.1L42.8143 33.6312L43.4437 32.4875C43.1052 32.2125 42.7312 31.9875 42.3334 31.8125L41.704 32.9562L41.128 32.8437C40.6946 32.7562 40.2493 32.7562 39.8159 32.8437L39.2399 32.9562L38.6105 31.8125C38.2127 31.9875 37.8446 32.2125 37.5002 32.4875L38.1296 33.6312L37.7496 34.1C37.4646 34.4562 37.239 34.8562 37.0965 35.2937L36.9005 35.875H35.6477C35.5943 36.3187 35.5943 36.775 35.6477 37.2187H36.9005L37.0965 37.8C37.2449 38.2375 37.4646 38.6375 37.7496 38.9937L38.1296 39.4625L37.5002 40.6062C37.8387 40.8812 38.2127 41.1062 38.6105 41.2812L39.2399 40.1375L39.8159 40.25C40.2493 40.3375 40.6946 40.3375 41.128 40.25L41.704 40.1375ZM42.2502 36.5C42.2502 35.3937 41.4012 34.5 40.3502 34.5C39.2993 34.5 38.4502 35.3937 38.4502 36.5C38.4502 37.6062 39.2993 38.5 40.3502 38.5C41.4012 38.5 42.2502 37.6062 42.2502 36.5ZM42.2502 17.4812C42.2502 16.375 41.4012 15.4812 40.3502 15.4812C39.2993 15.4812 38.4502 16.375 38.4502 17.4812C38.4502 18.5875 39.2993 19.4812 40.3502 19.4812C41.4012 19.4812 42.2502 18.5812 42.2502 17.4812Z" fill="#050426" fill-opacity="0.94"/>
</g>
<defs>
<clipPath id="clip0_2_3">
<rect width="38" height="32" fill="white" transform="translate(9 11)"/>
</clipPath>
</defs>
</svg>
